<svg width="1440" height="2250" viewBox="0 0 1440 2246" fill="none" xmlns="http://www.w3.org/2000/svg">
<path d="M1220 2243H1440M1220 1943H1440M1327.5 2243V1943M1220 1543H1440M1220 1243H1440M1327.5 1543V1243M1220 1003H1440M1220 703H1440M1327.5 1003V703M1440 303H1327.5M1327.5 303V3M1327.5 303H1217M1327.5 3H1217M1327.5 3H1440M0 2243H220M0 1943H220M107.5 2243V1943M0 1543H220M0 1243H220M107.5 1543V1243M0 1003H220M0 703H220M107.5 1003V703M0 3H107.5M0 500.5H1440M0 1120.5H1440M0 1740.5H1440M107.5 303V3M107.5 303H217M107.5 303H0M107.5 3H217" stroke="black" stroke-width="5"/>
</svg>
